<svg width="20" height="20" viewBox="0 0 20 20" fill="none" xmlns="http://www.w3.org/2000/svg">
<path d="M16.6668 14.5834C16.9878 14.5836 17.2965 14.7072 17.5288 14.9288C17.7611 15.1503 17.8993 15.4527 17.9148 15.7733C17.9302 16.094 17.8217 16.4083 17.6117 16.6511C17.4017 16.8939 17.1063 17.0466 16.7868 17.0776L16.6668 17.0834H3.3335C3.01248 17.0833 2.70383 16.9596 2.47151 16.7381C2.23918 16.5165 2.10099 16.2141 2.08556 15.8935C2.07013 15.5728 2.17866 15.2586 2.38864 15.0157C2.59863 14.7729 2.89398 14.6202 3.2135 14.5892L3.3335 14.5834H16.6668ZM16.6668 8.75008C16.9984 8.75008 17.3163 8.88178 17.5507 9.1162C17.7851 9.35062 17.9168 9.66856 17.9168 10.0001C17.9168 10.3316 17.7851 10.6495 17.5507 10.884C17.3163 11.1184 16.9984 11.2501 16.6668 11.2501H3.3335C3.00198 11.2501 2.68403 11.1184 2.44961 10.884C2.21519 10.6495 2.0835 10.3316 2.0835 10.0001C2.0835 9.66856 2.21519 9.35062 2.44961 9.1162C2.68403 8.88178 3.00198 8.75008 3.3335 8.75008H16.6668ZM16.6668 2.91675C16.9984 2.91675 17.3163 3.04844 17.5507 3.28286C17.7851 3.51729 17.9168 3.83523 17.9168 4.16675C17.9168 4.49827 17.7851 4.81621 17.5507 5.05063C17.3163 5.28505 16.9984 5.41675 16.6668 5.41675H3.3335C3.00198 5.41675 2.68403 5.28505 2.44961 5.05063C2.21519 4.81621 2.0835 4.49827 2.0835 4.16675C2.0835 3.83523 2.21519 3.51729 2.44961 3.28286C2.68403 3.04844 3.00198 2.91675 3.3335 2.91675H16.6668Z" fill="#595421"/>
</svg>
